<svg width="180" height="202" viewBox="0 0 180 202" fill="none" xmlns="http://www.w3.org/2000/svg">
<g id="stroke">
<mask id="path-1-inside-1_35_10" fill="white">
<path fill-rule="evenodd" clip-rule="evenodd" d="M169.95 118.151C183.284 110.453 183.284 91.2077 169.95 83.5097L30 2.70934C16.6667 -4.98867 0 4.6338 0 20.0298L0 51.5188C0.0415972 51.5332 0.0829281 51.5506 0.123779 51.571L86.645 94.8316H122.209C122.482 94.8316 122.743 94.9429 122.931 95.1397L132.512 105.137C133.121 105.773 132.671 106.829 131.79 106.829H86.645L0.114136 150.094C0.0764136 150.113 0.0383136 150.129 0 150.143L0 181.63C0 197.027 16.6666 206.649 30 198.951L169.95 118.151Z"/>
</mask>
<path d="M169.95 83.5097L174.95 74.8494L169.95 83.5097ZM169.95 118.151L174.95 126.811L169.95 118.151ZM30 2.70933L35 -5.95092H35L30 2.70933ZM0 51.5188H-10L-10 58.6349L-3.27673 60.9667L0 51.5188ZM0.123783 51.571L-4.34862 60.5151L-4.34835 60.5153L0.123783 51.571ZM86.645 94.8316L82.1729 103.776L84.2844 104.832H86.645V94.8316ZM122.931 95.1397L130.151 88.2207L130.151 88.2205L122.931 95.1397ZM132.512 105.137L125.292 112.056L125.292 112.056L132.512 105.137ZM86.645 106.829V96.8286H84.2844L82.1729 97.8844L86.645 106.829ZM0.11414 150.094L4.58592 159.039L4.58628 159.038L0.11414 150.094ZM0 150.143L-3.37071 140.728L-10 143.102V150.143H0ZM30 198.951L25 190.291H25L30 198.951ZM164.95 92.1699C171.617 96.0189 171.617 105.641 164.95 109.49L174.95 126.811C194.95 115.264 194.95 86.3964 174.95 74.8494L164.95 92.1699ZM25 11.3696L164.95 92.1699L174.95 74.8494L35 -5.95092L25 11.3696ZM10 20.0298C10 12.3318 18.3333 7.52057 25 11.3696L35 -5.95092C15 -17.4979 -10 -3.06422 -10 20.0298H10ZM10 51.5188V20.0298H-10V51.5188H10ZM-3.27673 60.9667C-3.64521 60.8389 -4.00323 60.6879 -4.34862 60.5151L4.59619 42.6269C4.16909 42.4133 3.72841 42.2275 3.27673 42.0709L-3.27673 60.9667ZM-4.34835 60.5153L82.1729 103.776L91.1172 85.8874L4.59592 42.6267L-4.34835 60.5153ZM86.645 104.832H122.209V84.8316H86.645V104.832ZM122.209 104.832C119.756 104.832 117.409 103.83 115.712 102.059L130.151 88.2205C128.076 86.0557 125.208 84.8316 122.209 84.8316V104.832ZM115.711 102.059L125.292 112.056L139.732 98.2177L130.151 88.2207L115.711 102.059ZM125.292 112.056C119.808 106.333 123.864 96.8286 131.79 96.8286V116.829C141.477 116.829 146.435 105.212 139.732 98.2176L125.292 112.056ZM131.79 96.8286H86.645V116.829H131.79V96.8286ZM82.1729 97.8844L-4.358 141.15L4.58628 159.038L91.1172 115.773L82.1729 97.8844ZM-4.35764 141.15C-4.03909 140.99 -3.70956 140.849 -3.37071 140.728L3.37071 159.558C3.78619 159.409 4.19192 159.236 4.58592 159.039L-4.35764 141.15ZM10 181.63L10 150.143H-10L-10 181.63H10ZM25 190.291C18.3333 194.14 10 189.329 10 181.63H-10C-10 204.724 15 219.158 35 207.611L25 190.291ZM164.95 109.49L25 190.291L35 207.611L174.95 126.811L164.95 109.49Z" fill="white" mask="url(#path-1-inside-1_35_10)"/>
</g>
</svg>
