<svg width="300" height="300" viewBox="0 0 300 300" fill="none" xmlns="http://www.w3.org/2000/svg">
<path fill-rule="evenodd" clip-rule="evenodd" d="M40 0C17.9086 0 0 17.9086 0 40V260C0 282.091 17.9086 300 40 300H260C282.091 300 300 282.091 300 260V40C300 17.9086 282.091 0 260 0H40ZM41 210.923L140.091 157.56L140.314 157.44H174.922H178.775H179.482H181.311H191.648H192.772C193.635 157.44 194.092 156.42 193.519 155.775L204.725 145.804C213.904 156.121 206.581 172.44 192.772 172.44H144.096L56 219.882V239.881C56 252.967 70.1667 261.146 81.5 254.603L236.374 165.187C247.707 158.643 247.707 142.285 236.374 135.742L81.5 46.3253C70.1666 39.782 56 47.9611 56 61.0477V80.1181L144.096 127.56H181.311C185.879 127.56 190.229 129.512 193.265 132.924L182.57 142.44L193.265 132.924L204.725 145.804L193.519 155.775L192.772 154.936L184.215 145.318L182.058 142.895C181.869 142.682 181.597 142.56 181.311 142.56H140.314L140.091 142.44L41 89.077V61.0477C41 36.4141 67.6667 21.0181 89 33.3349L243.874 122.751C265.207 135.068 265.207 165.86 243.874 178.177L89 267.593C67.6666 279.91 41 264.514 41 239.881V210.923Z" fill="url(#paint0_linear_15_46)"/>
<defs>
<linearGradient id="paint0_linear_15_46" x1="-40.2147" y1="16.9569" x2="279.881" y2="334.9" gradientUnits="userSpaceOnUse">
<stop stop-color="#5F8CE3"/>
<stop offset="1" stop-color="#C812F5"/>
</linearGradient>
</defs>
</svg>
