<svg width="864" height="310" viewBox="0 0 864 310" fill="none" xmlns="http://www.w3.org/2000/svg">
<mask id="path-1-inside-1_15_28" fill="white">
<path fill-rule="evenodd" clip-rule="evenodd" d="M254.721 185.713C276.054 173.396 276.054 142.604 254.721 130.287L48 10.9369C26.6667 -1.37996 0 14.0161 0 38.6497L0 83.3288L131.179 148.918H185.242C185.515 148.918 185.775 149.03 185.964 149.226L201.454 165.39C202.063 166.026 201.613 167.082 200.732 167.082H131.179L0 232.671L0 277.35C0 301.984 26.6667 317.38 48 305.063L254.721 185.713Z"/>
</mask>
<path d="M254.721 130.287L247.221 143.278L247.221 143.278L254.721 130.287ZM254.721 185.713L247.221 172.722L247.221 172.722L254.721 185.713ZM48 10.9369L55.5 -2.05353L55.5 -2.05353L48 10.9369ZM0 83.3288H-15V92.5994L-6.7082 96.7453L0 83.3288ZM131.179 148.918L124.471 162.335L127.638 163.918H131.179V148.918ZM185.964 149.226L196.794 138.848L196.794 138.848L185.964 149.226ZM201.454 165.39L190.624 175.768L190.624 175.768L201.454 165.39ZM131.179 167.082V152.082H127.638L124.471 153.665L131.179 167.082ZM0 232.671L-6.7082 219.255L-15 223.401V232.671H0ZM48 305.063L55.5 318.054L55.5 318.054L48 305.063ZM247.221 143.278C258.554 149.821 258.554 166.179 247.221 172.722L262.221 198.703C293.554 180.613 293.554 135.387 262.221 117.297L247.221 143.278ZM40.5 23.9272L247.221 143.278L262.221 117.297L55.5 -2.05353L40.5 23.9272ZM15 38.6497C15 25.5631 29.1667 17.3839 40.5 23.9272L55.5 -2.05353C24.1666 -20.1439 -15 2.46911 -15 38.6497H15ZM15 83.3288L15 38.6497H-15L-15 83.3288H15ZM-6.7082 96.7453L124.471 162.335L137.887 135.502L6.7082 69.9124L-6.7082 96.7453ZM131.179 163.918H185.242V133.918H131.179V163.918ZM185.242 163.918C181.426 163.918 177.775 162.36 175.134 159.605L196.794 138.848C193.776 135.699 189.604 133.918 185.242 133.918V163.918ZM175.134 159.605L190.624 175.768L212.284 155.011L196.794 138.848L175.134 159.605ZM190.624 175.768C182.093 166.867 188.402 152.082 200.732 152.082V182.082C214.823 182.082 222.033 165.185 212.284 155.011L190.624 175.768ZM200.732 152.082H131.179V182.082H200.732V152.082ZM124.471 153.665L-6.7082 219.255L6.7082 246.088L137.887 180.498L124.471 153.665ZM15 277.35L15 232.671H-15L-15 277.35H15ZM40.5 292.073C29.1667 298.616 15 290.437 15 277.35H-15C-15 313.531 24.1667 336.144 55.5 318.054L40.5 292.073ZM247.221 172.722L40.5 292.073L55.5 318.054L262.221 198.703L247.221 172.722Z" fill="url(#paint0_linear_15_28)" mask="url(#path-1-inside-1_15_28)"/>
<path d="M320 146.5H305V131H320V99.25C320 88.4167 323.417 79.5833 330.25 72.75C337.25 65.75 346.167 62.25 357 62.25H364V77.75H357C351.167 77.75 346.333 79.75 342.5 83.75C338.833 87.75 337 92.9167 337 99.25V131H399.5V248H382.5V146.5H337V248H320V146.5ZM391 108.25C387.167 108.25 383.917 106.917 381.25 104.25C378.75 101.583 377.5 98.3333 377.5 94.5C377.5 90.8333 378.75 87.75 381.25 85.25C383.917 82.5833 387.167 81.25 391 81.25C394.667 81.25 397.833 82.5833 400.5 85.25C403.167 87.75 404.5 90.9167 404.5 94.75C404.5 98.4167 403.167 101.583 400.5 104.25C397.833 106.917 394.667 108.25 391 108.25ZM441.465 248V66.5H458.465V248H441.465ZM492.246 248V66.5H509.246V248H492.246ZM551.027 248V131H568.027V248H551.027ZM559.527 108.25C555.694 108.25 552.444 106.917 549.777 104.25C547.277 101.583 546.027 98.3333 546.027 94.5C546.027 90.8333 547.277 87.75 549.777 85.25C552.444 82.5833 555.694 81.25 559.527 81.25C563.194 81.25 566.361 82.5833 569.027 85.25C571.694 87.75 573.027 90.9167 573.027 94.75C573.027 98.4167 571.694 101.583 569.027 104.25C566.361 106.917 563.194 108.25 559.527 108.25ZM649.922 252C638.589 252 628.589 249.583 619.922 244.75C611.422 239.917 604.922 233.083 600.422 224.25L615.672 216.75C621.839 229.917 633.922 236.5 651.922 236.5C660.589 236.5 667.755 234.917 673.422 231.75C679.089 228.583 681.922 223.667 681.922 217C681.922 210.167 679.589 205.083 674.922 201.75C670.422 198.417 662.422 196.25 650.922 195.25C634.922 193.917 623.422 190.333 616.422 184.5C609.589 178.667 606.172 170.917 606.172 161.25C606.172 150.417 610.089 142 617.922 136C625.755 130 636.505 127 650.172 127C673.339 127 689.089 136.167 697.422 154.5L682.172 162C679.339 155.333 675.172 150.417 669.672 147.25C664.339 144.083 657.422 142.5 648.922 142.5C640.255 142.5 633.589 144.083 628.922 147.25C624.422 150.417 622.172 154.917 622.172 160.75C622.172 166.25 624.589 170.75 629.422 174.25C634.422 177.583 642.922 179.75 654.922 180.75C669.755 182.083 680.755 185.75 687.922 191.75C695.255 197.583 698.922 205.333 698.922 215C698.922 222.833 696.672 229.583 692.172 235.25C687.672 240.75 681.672 244.917 674.172 247.75C666.672 250.583 658.589 252 649.922 252ZM730.889 248V146.5H710.889V131H730.889V92.25H747.889V131H774.889V146.5H747.889V248H730.889Z" fill="black"/>
<defs>
<linearGradient id="paint0_linear_15_28" x1="-36.2899" y1="23.7169" x2="284.533" y2="308.626" gradientUnits="userSpaceOnUse">
<stop stop-color="#5F8CE3"/>
<stop offset="1" stop-color="#C812F5"/>
</linearGradient>
</defs>
</svg>
