<svg width="254" height="284" viewBox="0 0 254 284" fill="none" xmlns="http://www.w3.org/2000/svg">
<mask id="path-1-inside-1_11_111" fill="white">
<path fill-rule="evenodd" clip-rule="evenodd" d="M237.638 169.248C258.972 156.931 258.972 126.14 237.638 113.823L48 4.33494C26.6667 -7.98186 0 7.41406 0 32.0477L0 71.078L123.777 132.966H174.765C175.037 132.966 175.298 133.078 175.487 133.274L189.994 148.413C190.604 149.049 190.153 150.105 189.272 150.105H123.777L0 211.993L0 251.023C0 275.657 26.6666 291.053 47.9999 278.736L237.638 169.248Z"/>
</mask>
<path d="M237.638 113.823L230.138 126.813L230.138 126.813L237.638 113.823ZM237.638 169.248L245.138 182.239L245.138 182.239L237.638 169.248ZM48 4.33494L55.5 -8.65544L55.5 -8.65544L48 4.33494ZM0 71.078H-15V80.3485L-6.7082 84.4944L0 71.078ZM123.777 132.966L117.068 146.383L120.236 147.966H123.777V132.966ZM175.487 133.274L186.317 122.896L186.316 122.896L175.487 133.274ZM189.994 148.413L179.164 158.791L179.165 158.791L189.994 148.413ZM123.777 150.105V135.105H120.236L117.068 136.688L123.777 150.105ZM0 211.993L-6.7082 198.576L-15 202.722L-15 211.993H0ZM0 251.023H15H0ZM47.9999 278.736L55.4999 291.726L47.9999 278.736ZM230.138 126.813C241.472 133.356 241.472 149.715 230.138 156.258L245.138 182.239C276.472 164.148 276.472 118.923 245.138 100.832L230.138 126.813ZM40.5 17.3253L230.138 126.813L245.138 100.832L55.5 -8.65544L40.5 17.3253ZM15 32.0477C15 18.9611 29.1666 10.782 40.5 17.3253L55.5 -8.65544C24.1667 -26.7457 -15 -4.13302 -15 32.0477H15ZM15 71.078L15 32.0477H-15L-15 71.078H15ZM-6.7082 84.4944L117.068 146.383L130.485 119.55L6.7082 57.6616L-6.7082 84.4944ZM123.777 147.966H174.765V117.966L123.777 117.966V147.966ZM174.765 147.966C170.949 147.966 167.298 146.408 164.657 143.653L186.316 122.896C183.299 119.747 179.126 117.966 174.765 117.966V147.966ZM164.657 143.653L179.164 158.791L200.824 138.034L186.317 122.896L164.657 143.653ZM179.165 158.791C170.633 149.889 176.943 135.105 189.272 135.105V165.105C203.363 165.105 210.574 148.208 200.824 138.034L179.165 158.791ZM189.272 135.105H123.777L123.777 165.105H189.272V135.105ZM117.068 136.688L-6.7082 198.576L6.7082 225.409L130.485 163.521L117.068 136.688ZM15 251.023L15 211.993H-15L-15 251.023H15ZM40.4999 265.746C29.1666 272.289 15 264.11 15 251.023H-15C-15 287.204 24.1666 309.817 55.4999 291.726L40.4999 265.746ZM230.138 156.258L40.4999 265.746L55.4999 291.726L245.138 182.239L230.138 156.258Z" fill="url(#paint0_linear_11_111)" mask="url(#path-1-inside-1_11_111)"/>
<defs>
<linearGradient id="paint0_linear_11_111" x1="-34" y1="16" x2="266" y2="283" gradientUnits="userSpaceOnUse">
<stop stop-color="#5F8CE3"/>
<stop offset="1" stop-color="#C812F5"/>
</linearGradient>
</defs>
</svg>
