<svg width="300" height="300" viewBox="0 0 300 300" fill="none" xmlns="http://www.w3.org/2000/svg">
<path fill-rule="evenodd" clip-rule="evenodd" d="M40 0C17.9086 0 0 17.9086 0 40V260C0 282.091 17.9086 300 40 300H260C282.091 300 300 282.091 300 260V40C300 17.9086 282.091 0 260 0H40ZM223.867 121.962C245.2 134.279 245.2 165.071 223.867 177.388L97.6323 250.269C76.299 262.586 49.6323 247.19 49.6323 222.556V222.556C49.6323 211.486 55.8871 201.365 65.789 196.414L139.6 159.509C143.765 157.426 148.359 156.342 153.016 156.342H196.371C197.252 156.342 197.703 155.286 197.093 154.65L186.231 143.316C186.043 143.119 185.782 143.008 185.509 143.008H153.016C148.359 143.008 143.765 141.923 139.6 139.841L65.7889 102.935C55.8871 97.9843 49.6323 87.8638 49.6323 76.7933V76.7933C49.6323 52.1596 76.299 36.7636 97.6323 49.0804L223.867 121.962Z" fill="url(#paint0_linear_11_106)"/>
<defs>
<linearGradient id="paint0_linear_11_106" x1="27.3529" y1="56.4706" x2="272.647" y2="259.412" gradientUnits="userSpaceOnUse">
<stop stop-color="#5790FF"/>
<stop offset="0.6875" stop-color="#C812F5"/>
</linearGradient>
</defs>
</svg>
